<?xml version="1.0" standalone="no"?><!DOCTYPE svg PUBLIC "-//W3C//DTD SVG 1.1//EN" "http://www.w3.org/Graphics/SVG/1.1/DTD/svg11.dtd"><svg t="1554946638044" class="icon" style="" viewBox="0 0 1024 1024" version="1.1" xmlns="http://www.w3.org/2000/svg" p-id="15631" xmlns:xlink="http://www.w3.org/1999/xlink" width="200" height="200"><defs><style type="text/css"></style></defs><path d="M928.86016 879.57504l-118.11328-151.81312c76.73344-76.38528 124.2624-182.08768 124.2624-298.91584 0-232.96512-188.86144-421.82656-421.82144-421.82656-232.97024 0-421.82656 188.86144-421.82656 421.82656 0 119.66464 50.05312 227.44576 130.08896 304.22016L105.3184 880.2304c-17.46432 17.3312-11.74016 29.80352 12.79488 27.89376l107.264 2.78016 23.94112 85.61664c3.72736 24.30976 27.81184 30.2336 42.65472 10.60864l117.96992-169.71776c33.09568 8.34048 67.5584 13.2608 103.24992 13.2608 38.21568 0 75.06944-5.53984 110.27456-15.06304l118.75328 170.86976c14.83776 19.61472 38.93248 13.696 42.65472-10.61376l23.94112-85.61664 107.25888-2.78528c24.52992 1.92 30.24896-10.56256 12.78464-27.88864zM386.63168 428.84096c0-69.888 56.65792-126.54592 126.55104-126.54592 69.89312 0 126.54592 56.65792 126.54592 126.54592s-56.6528 126.54592-126.54592 126.54592c-69.888 0.00512-126.55104-56.6528-126.55104-126.54592z" p-id="15632"></path></svg>