<?xml version="1.0" standalone="no"?><!DOCTYPE svg PUBLIC "-//W3C//DTD SVG 1.1//EN" "http://www.w3.org/Graphics/SVG/1.1/DTD/svg11.dtd"><svg t="1554946331776" class="icon" style="" viewBox="0 0 1024 1024" version="1.1" xmlns="http://www.w3.org/2000/svg" p-id="7474" xmlns:xlink="http://www.w3.org/1999/xlink" width="200" height="200"><defs><style type="text/css"></style></defs><path d="M399.36 327.68h225.28c11.264 0 20.48-9.216 20.48-20.48v-40.96c0-33.792-27.648-61.44-61.44-61.44H440.32c-33.792 0-61.44 27.648-61.44 61.44v40.96c0 11.264 9.216 20.48 20.48 20.48z m337.92-71.68h-20.48c-6.144 0-10.24 4.096-10.24 10.24v40.96c0 45.056-36.864 81.92-81.92 81.92H399.36c-45.056 0-81.92-36.864-81.92-81.92v-40.96c0-6.144-4.096-10.24-10.24-10.24h-20.48c-33.792 0-61.44 27.648-61.44 61.44v440.32c0 33.792 27.648 61.44 61.44 61.44h450.56c33.792 0 61.44-27.648 61.44-61.44V317.44c0-33.792-27.648-61.44-61.44-61.44z m-53.248 245.76L487.424 698.368c-5.12 5.12-11.264 8.192-18.432 8.192s-14.336-3.072-19.456-8.192L339.968 588.8c-5.12-5.12-5.12-11.264 0-16.384l21.504-21.504c5.12-5.12 11.264-5.12 16.384 0l90.112 90.112L645.12 463.872c5.12-5.12 11.264-5.12 16.384 0l21.504 21.504c5.12 5.12 5.12 12.288 1.024 16.384z" p-id="7475"></path></svg>