<?xml version="1.0" standalone="no"?><!DOCTYPE svg PUBLIC "-//W3C//DTD SVG 1.1//EN" "http://www.w3.org/Graphics/SVG/1.1/DTD/svg11.dtd"><svg t="1554946597601" class="icon" style="" viewBox="0 0 1024 1024" version="1.1" xmlns="http://www.w3.org/2000/svg" p-id="14905" xmlns:xlink="http://www.w3.org/1999/xlink" width="200" height="200"><defs><style type="text/css"></style></defs><path d="M843.2711111 44.94222221L187.91111111 44.94222221C107.81155555 44.94222221 42.27555554 110.47822221 42.27555554 190.57777777l0 655.36c0 80.09955555 65.536 145.63555555 145.63555557 145.63555556l655.35999999 0c80.09955555 0 145.63555555-65.536 145.63555556-145.63555556L988.90666666 190.57777777C988.90666666 110.47822221 923.37066666 44.94222221 843.2711111 44.94222221zM297.13777778 773.11999999C276.74879999 773.11999999 260.72888889 757.10008887 260.72888889 736.71111111 260.72888889 716.32213333 276.74879999 700.30222221 297.13777778 700.30222221 317.52675554 700.30222221 333.54666666 716.32213333 333.54666666 736.71111111 333.54666666 757.10008887 317.52675554 773.11999999 297.13777778 773.11999999zM297.13777778 554.66666666C276.74879999 554.66666666 260.72888889 538.64675555 260.72888889 518.25777777 260.72888889 497.86879999 276.74879999 481.84888889 297.13777778 481.84888889 317.52675554 481.84888889 333.54666666 497.86879999 333.54666666 518.25777777 333.54666666 538.64675555 317.52675554 554.66666666 297.13777778 554.66666666zM297.13777778 336.21333333C276.74879999 336.21333333 260.72888889 320.19342221 260.72888889 299.80444444 260.72888889 279.41546666 276.74879999 263.39555555 297.13777778 263.39555555 317.52675554 263.39555555 333.54666666 279.41546666 333.54666666 299.80444444 333.54666666 320.19342221 317.52675554 336.21333333 297.13777778 336.21333333zM734.04444445 773.11999999l-291.27111113 0C422.38435555 773.11999999 406.36444444 757.10008887 406.36444444 736.71111111 406.36444444 716.32213333 422.38435555 700.30222221 442.77333332 700.30222221l291.27111113 0c20.38897778 0 36.40888889 16.01991111 36.40888888 36.4088889C770.45333333 757.10008887 754.43342221 773.11999999 734.04444445 773.11999999zM734.04444445 554.66666666l-291.27111113 0C422.38435555 554.66666666 406.36444444 538.64675555 406.36444444 518.25777777 406.36444444 497.86879999 422.38435555 481.84888889 442.77333332 481.84888889l291.27111113-2e-8C754.43342221 481.84888889 770.45333333 497.86879999 770.45333333 518.25777777 770.45333333 538.64675555 754.43342221 554.66666666 734.04444445 554.66666666zM734.04444445 336.21333333l-291.27111113 0C422.38435555 336.21333333 406.36444444 320.19342221 406.36444444 299.80444444 406.36444444 279.41546666 422.38435555 263.39555555 442.77333332 263.39555555l291.27111113 0C754.43342221 263.39555555 770.45333333 279.41546666 770.45333333 299.80444444 770.45333333 320.19342221 754.43342221 336.21333333 734.04444445 336.21333333z" p-id="14906"></path></svg>