<?xml version="1.0" standalone="no"?><!DOCTYPE svg PUBLIC "-//W3C//DTD SVG 1.1//EN" "http://www.w3.org/Graphics/SVG/1.1/DTD/svg11.dtd"><svg t="1554946491019" class="icon" style="" viewBox="0 0 1024 1024" version="1.1" xmlns="http://www.w3.org/2000/svg" p-id="13946" xmlns:xlink="http://www.w3.org/1999/xlink" width="200" height="200"><defs><style type="text/css"></style></defs><path d="M101.90339 964.178543h813.941843c22.246677-0.070608 40.271192-18.074657 40.365336-40.321334V109.857037c-0.063445-22.274306-18.104333-40.315194-40.379662-40.378639H722.980667c-22.274306 0.063445-40.315194 18.104333-40.378639 40.378639V690.571025H101.90339c-22.275329 0.061398-40.317241 18.104333-40.37864 40.378639v192.907545c0.093121 22.251793 18.124799 40.256866 40.37864 40.321334z m680.257121-737.601154c0.047072-16.70445 13.577227-30.233582 30.280654-30.280654h128.856763v60.561307H812.441165c-16.70445-0.047072-30.233582-13.577227-30.280654-30.280653z m0 216.492705c0.047072-16.703427 13.577227-30.233582 30.280654-30.27963h128.856763v60.560284H812.441165c-16.70445-0.046049-30.233582-13.576203-30.280654-30.280654z m0 216.492706c0.047072-16.702404 13.577227-30.233582 30.280654-30.280653h128.856763v60.561307H812.441165c-16.70445-0.047072-30.233582-13.57518-30.280654-30.280654zM626.912681 821.064055c0.047072-16.702404 13.576203-30.233582 30.280654-30.280654 16.703427 0.047072 30.233582 13.579273 30.280654 30.280654v128.872112h-60.561308V821.064055z m-216.493729 0c0.047072-16.70138 13.577227-30.233582 30.280654-30.280654 16.703427 0.047072 30.233582 13.579273 30.280653 30.280654v128.872112h-60.561307V821.064055z m-216.491683 0c0.046049-16.70138 13.57518-30.233582 30.280654-30.280654 16.703427 0.047072 30.233582 13.579273 30.280654 30.280654v128.872112h-60.561308V821.064055z" p-id="13947"></path></svg>