<?xml version="1.0" standalone="no"?><!DOCTYPE svg PUBLIC "-//W3C//DTD SVG 1.1//EN" "http://www.w3.org/Graphics/SVG/1.1/DTD/svg11.dtd"><svg t="1554946241086" class="icon" style="" viewBox="0 0 1024 1024" version="1.1" xmlns="http://www.w3.org/2000/svg" p-id="2649" xmlns:xlink="http://www.w3.org/1999/xlink" width="200" height="200"><defs><style type="text/css"></style></defs><path d="M889.4 254.5l-352-152.3c-16.2-7-34.6-7-50.8 0l-352 152.2C111.2 264.5 96 287.6 96 313.1V863c0 35.4 28.7 64 64 64h704c35.3 0 64-28.7 64-64V313.3c0-25.6-15.2-48.6-38.6-58.8zM288 778c-26.5 0-48-21.5-48-48s21.5-48 48-48 48 21.5 48 48-21.5 48-48 48z m0-160.1c-26.5 0-48-21.5-48-48s21.5-48 48-48 48 21.5 48 48-21.5 48-48 48z m0-159.8c-26.5 0-48-21.5-48-48s21.5-48 48-48 48 21.5 48 48-21.5 48-48 48z m486.6 294.5c-5.8 5.8-13.8 9.4-22.6 9.4H432c-17.6 0-32-14.4-32-32 0-8.8 3.6-16.8 9.4-22.6 5.8-5.8 13.8-9.4 22.6-9.4h320c17.6 0 32 14.4 32 32 0 8.8-3.6 16.8-9.4 22.6z m0-160.1c-5.8 5.8-13.8 9.4-22.6 9.4H432c-17.6 0-32-14.4-32-32 0-8.8 3.6-16.8 9.4-22.6 5.8-5.8 13.8-9.4 22.6-9.4h320c17.6 0 32 14.4 32 32 0 8.8-3.6 16.8-9.4 22.6z m0-159.8c-5.8 5.8-13.8 9.4-22.6 9.4H432c-17.6 0-32-14.4-32-32 0-8.8 3.6-16.8 9.4-22.6 5.8-5.8 13.8-9.4 22.6-9.4h320c17.6 0 32 14.4 32 32 0 8.8-3.6 16.8-9.4 22.6z" p-id="2650"></path></svg>