<?xml version="1.0" standalone="no"?><!DOCTYPE svg PUBLIC "-//W3C//DTD SVG 1.1//EN" "http://www.w3.org/Graphics/SVG/1.1/DTD/svg11.dtd"><svg t="1554946687605" class="icon" style="" viewBox="0 0 1024 1024" version="1.1" xmlns="http://www.w3.org/2000/svg" p-id="17920" xmlns:xlink="http://www.w3.org/1999/xlink" width="200" height="200"><defs><style type="text/css"></style></defs><path d="M616.9 761.4h11.4l45.2-55c-17.4-17.6-30.6-39.2-38.4-62.6-28.4-85.1 17.4-177.1 102.5-205.8 16.6-5.6 34-8.4 51.6-8.4 4.6 0 9.2 0.2 13.8 0.6V116.7c0-40.4-32.8-73.3-73.3-73.3H73.3C32.8 43.4 0 76.3 0 116.7v790.6c0 40.4 32.8 73.3 73.3 73.3H514c1 0 2-0.2 3-0.6-11.4-18.2-18-39.6-18-62.4v-38.2c0-65 53-118 117.9-118zM177.7 234h186.9c20.2 0 36.6 16.4 36.6 36.6s-16.4 36.6-36.6 36.6H177.7c-20.2 0-36.6-16.4-36.6-36.6s16.6-36.6 36.6-36.6z m0 216.2h355.5c20.2 0 36.6 16.4 36.6 36.6s-16.2 36.6-36.6 36.6H177.7c-20.2 0-36.6-16.4-36.6-36.6s16.6-36.6 36.6-36.6z m300.7 289.4H177.7c-20.2 0-36.6-16.4-36.6-36.6 0-20.2 16.4-36.6 36.6-36.6h300.4c20.2 0 36.6 16.4 36.6 36.6 0.3 20.2-16.1 36.6-36.3 36.6z" p-id="17921"></path><path d="M961.3 816.4h-37.4L823 694.1c56.2-18.8 86.7-79.9 67.9-136.1-15-44.8-57-73.3-101.9-73.3-11.4 0-22.8 1.8-34.2 5.6-56.2 18.8-86.7 79.9-67.9 136.1 10.6 31.8 35.8 57 67.9 67.9L654.1 816.8h-37.4c-34.8 0-62.8 28.2-62.8 62.8v38c0 34.8 28.2 62.8 62.8 62.8h344.5c34.6 0 62.8-28.2 62.8-62.8v-38.2c0.2-34.7-28-62.8-62.7-63z" p-id="17922"></path></svg>