<?xml version="1.0" standalone="no"?><!DOCTYPE svg PUBLIC "-//W3C//DTD SVG 1.1//EN" "http://www.w3.org/Graphics/SVG/1.1/DTD/svg11.dtd"><svg t="1554946668793" class="icon" style="" viewBox="0 0 1024 1024" version="1.1" xmlns="http://www.w3.org/2000/svg" p-id="16489" xmlns:xlink="http://www.w3.org/1999/xlink" width="200" height="200"><defs><style type="text/css"></style></defs><path d="M0 0h1024v1024H0z" fill="#FFFFFF" p-id="16490"></path><path d="M891.604 962H133.221C111.558 962 94 943.1 94 919.811V216.689c0-23.289 17.558-42.189 39.221-42.189h78.458v42.189c0 54.379 40.989 98.431 91.532 98.431s91.532-44.053 91.532-98.431V174.5h235.358v42.189c0 54.379 40.99 98.431 91.532 98.431s91.532-44.053 91.532-98.431V174.5h78.458c21.662 0 39.22 18.9 39.22 42.189V919.81c-0.001 23.29-17.559 42.19-39.239 42.19zM353.926 684.184l91.516 98.432a37.308 37.308 0 0 0 55.485 0l183.062-196.879a43.644 43.644 0 0 0 11.495-29.826c0-23.289-17.558-42.189-39.237-42.189a37.8 37.8 0 0 0-27.726 12.363L473.184 693.137l-63.774-68.605a37.785 37.785 0 0 0-27.74-12.363c-21.679 0-39.237 18.884-39.237 42.189a43.7 43.7 0 0 0 11.495 29.826zM875.579 362H149.263a23.684 23.684 0 0 0 0 47.368h726.316a23.684 23.684 0 0 0 0-47.368zM721.631 258.879c-21.663 0-39.221-18.9-39.221-42.189V104.189C682.41 80.9 699.97 62 721.631 62s39.221 18.9 39.221 42.189v112.5c0 23.289-17.558 42.189-39.221 42.189z m-418.421 0c-21.663 0-39.221-18.9-39.221-42.189V104.189C263.989 80.9 281.547 62 303.21 62c21.647 0 39.221 18.9 39.221 42.189v112.5c0 23.289-17.574 42.189-39.221 42.189z" fill="#2C2C2C" p-id="16491"></path></svg>